<svg xmlns="http://www.w3.org/2000/svg" viewBox="0 0 75.24 89.54"><defs><style>.cls-1{fill:#de4357;}.cls-2{fill:#414141;}</style></defs><title>Recurso 12</title><g id="Capa_2" data-name="Capa 2"><g id="Imgs-texts"><path class="cls-1" d="M37.61,83.07C5.45,71.38,5.93,45.79,6.36,23.19c0-1.37,0-2.69.07-4C19,18.67,29,14.87,37.61,7.39c8.6,7.48,18.64,11.29,31.2,11.82,0,1.29.05,2.61.08,4C69.31,45.79,69.8,71.38,37.61,83.07Z"/><path class="cls-2" d="M75.15,23.05c-.05-2.41-.1-4.71-.1-6.91A3.13,3.13,0,0,0,71.92,13C58.52,13,48.31,9.16,39.8.89a3.14,3.14,0,0,0-4.37,0C26.93,9.16,16.73,13,3.32,13A3.14,3.14,0,0,0,.19,16.14c0,2.21,0,4.5-.1,6.91-.43,22.5-1,53.31,36.5,66.31a3.13,3.13,0,0,0,2.05,0C76.16,76.37,75.58,45.55,75.15,23.05Zm-37.53,60C5.45,71.39,5.94,45.79,6.37,23.18c0-1.35,0-2.68.07-4C19,18.68,29,14.88,37.62,7.39c8.6,7.48,18.64,11.29,31.19,11.82,0,1.28,0,2.61.07,4C69.31,45.79,69.8,71.39,37.62,83.08Z"/><path class="cls-2" d="M48.42,33.87,33.29,49l-6.46-6.45A3.13,3.13,0,1,0,22.4,47l8.66,8.68a3.13,3.13,0,0,0,4.43,0L52.84,38.31a3.13,3.13,0,0,0-4.42-4.44Z"/></g></g></svg>