<svg xmlns="http://www.w3.org/2000/svg" viewBox="0 0 112.79 71.15"><defs><style>.cls-1{fill:#414141;}.cls-2{fill:#8cd1e9;}</style></defs><title>Recurso 10</title><g id="Capa_2" data-name="Capa 2"><g id="Imgs-texts"><path class="cls-1" d="M92.84,71.15H25.16a25.16,25.16,0,0,1,0-50.32h.6A33,33,0,0,1,89.32,31.24h3.53a20,20,0,0,1,0,39.91ZM25.16,29.5a16.49,16.49,0,1,0,0,33H92.84a11.29,11.29,0,0,0,0-22.57H80.7V33A24.3,24.3,0,0,0,33,26.36l-.9,3.14Z"/><path class="cls-2" d="M25.16,29.5a16.49,16.49,0,1,0,0,33H92.84a11.29,11.29,0,0,0,0-22.57H80.7V33A24.3,24.3,0,0,0,33,26.36l-.9,3.14Z"/></g></g></svg>