<svg xmlns="http://www.w3.org/2000/svg" viewBox="0 0 713.54 444.1"><defs><style>.cls-1,.cls-2{fill:#4d4d4d;}.cls-2{font-size:76.31px;font-family:OpenSans-Semibold, Open Sans;font-weight:700;}</style></defs><title>Recurso 9</title><g id="Capa_2" data-name="Capa 2"><g id="Imgs-texts"><path class="cls-1" d="M304.24,161.92c19.29,0,35.47,16.19,35.47,34.85,0,3.75-1.24,8.09-2.49,11.83,16.19,6.83,31.11,23.65,31.11,46q0,20.57-14.92,35.48t-35.47,15H268.14V161.92Zm0,46c5,0,8.71-3.74,8.71-8.09a8.49,8.49,0,0,0-8.71-8.7H297.4v17.42h6.84Zm35.47,47.29c0-6.22-1.86-11.2-6.22-14.93-4.36-4.36-9.33-4.36-14.93-4.36H297.4V277h21.15C330.37,276.44,339.7,267.1,339.7,255.26Z"/><path class="cls-1" d="M378.92,163.16h28.63V306.93H378.92Z"/><path class="cls-1" d="M484.08,163.16h36.1v28.63h-36.1V306.93H455.45V191.79H419.36V163.16h64.71Z"/><path class="cls-1" d="M444.88,24.39C429.93,9.45,412.51,2,391.37,2c-20.53,0-38.58,7.47-53.52,22.41-13.7,13.7-21.17,29.87-21.79,48.55h30.5c1.24-10.59,5.59-19.3,13.07-27.39a45.09,45.09,0,0,1,63.48,0,43.28,43.28,0,0,1,13.06,31.74A43.27,43.27,0,0,1,423.11,109a45.09,45.09,0,0,1-63.48,0c-.63-.62-1.24-1.85-2.5-2.49l-6.84,34.23c11.81,8.08,25.52,11.83,41.08,11.83,20.54,0,38.57-7.46,53.51-22.41s22.41-32.36,22.41-53.51C466.65,56.75,459.82,39.32,444.88,24.39Z"/><path class="cls-1" d="M355.89,79.77l-61,1.87,13.68,18.66a48.76,48.76,0,0,1-9.33,10.58,43.47,43.47,0,0,1-25.52,10,45.43,45.43,0,0,1-33-11.2c-9.33-8.08-14.31-18.66-15.55-31.11-.63-12.46,3.11-23,11.19-33,8.09-9.33,18.68-14.31,31.12-15.55,12.45-.62,23,3.11,33,11.2l19.91-22.41A76.5,76.5,0,0,0,295.52,4.47,78.93,78.93,0,0,0,265.66.12h0c-20.55,1.24-38,10-51.65,25.5s-19.91,34.23-18.68,54.77,10,38,25.52,51.66,33.61,19.9,54.76,18.66c20.54-1.24,38-10,51.66-25.52l.62-.6,14.31,19.28Z"/><text class="cls-2" transform="translate(3.8 422.57)">Paga Cobra &amp; Gana</text></g></g></svg>