<svg xmlns="http://www.w3.org/2000/svg" viewBox="0 0 80.74 113.98"><defs><style>.cls-1{fill:#414141;}.cls-2{fill:#8cd1e9;}.cls-3{fill:#c06828;}.cls-4{fill:#efefef;}</style></defs><title>Recurso 16</title><g id="Capa_2" data-name="Capa 2"><g id="Imgs-texts"><path class="cls-1" d="M76,19H71.24V14.25H66.49V0H61.74V14.25H57V19H23.75V14.25H19V0H14.25V14.25H9.5V19H0v95H80.74V19ZM61.74,19h4.75v4.75H61.74ZM14.25,19H19v4.75H14.25ZM76,109.23H4.75V23.75H9.5v4.75H23.75V23.75H57v4.75H71.24V23.75H76Z"/><path class="cls-1" d="M40,40.18a5,5,0,1,0,0,10,5.06,5.06,0,0,0,5-5A4.94,4.94,0,0,0,40,40.18Zm0,3.5A1.3,1.3,0,0,1,41.3,45,1.4,1.4,0,0,1,40,46.37,1.32,1.32,0,0,1,38.61,45,1.3,1.3,0,0,1,40,43.68Z"/><path class="cls-1" d="M22.07,73.61a5,5,0,0,0,0,10,5.06,5.06,0,0,0,5-5A4.94,4.94,0,0,0,22.07,73.61Zm0,3.52a1.4,1.4,0,0,1,1.35,1.35,1.3,1.3,0,0,1-1.35,1.35,1.4,1.4,0,0,1-1.35-1.35A1.32,1.32,0,0,1,22.07,77.13Z"/><path class="cls-1" d="M57.84,69.07a13.06,13.06,0,0,0-10.06,4.64l-6.07-5.53V61.85a13.28,13.28,0,0,0,11.4-13A13,13,0,0,0,40,35.65a13.16,13.16,0,0,0-1.76,26.19V68.1L32.1,73.66a13.2,13.2,0,1,0,3.13,8.57,13.21,13.21,0,0,0-1.14-5.41l5.82-5.36,5.9,5.38a13.2,13.2,0,0,0,12,18.55,13.16,13.16,0,0,0,0-26.32Zm-1.17,18.8H59a4.14,4.14,0,0,1,3.78,2.49,9.66,9.66,0,0,1-9.89,0A4.12,4.12,0,0,1,56.67,87.87ZM59,84.35H56.67a7.77,7.77,0,0,0-6.55,3.42,9.51,9.51,0,1,1,15.38.1A7.82,7.82,0,0,0,59,84.35Zm-38.1,3.52h2.34A4.14,4.14,0,0,1,27,90.36a9.66,9.66,0,0,1-9.89,0A4.12,4.12,0,0,1,20.91,87.87Zm2.34-3.52H20.91a7.78,7.78,0,0,0-6.55,3.42A9.5,9.5,0,0,1,22.08,72.7a9.51,9.51,0,0,1,7.65,15.15A7.82,7.82,0,0,0,23.25,84.35ZM41.12,50.91H38.78a7.78,7.78,0,0,0-6.55,3.42,9.51,9.51,0,1,1,15.38.09A7.83,7.83,0,0,0,41.12,50.91ZM38.8,54.43h2.34a4.13,4.13,0,0,1,3.78,2.49,9.65,9.65,0,0,1-9.89,0A4.12,4.12,0,0,1,38.8,54.43Z"/><path class="cls-1" d="M57.84,73.61a5,5,0,1,0,5,5A4.94,4.94,0,0,0,57.84,73.61Zm0,3.52a1.35,1.35,0,0,1,0,2.69,1.4,1.4,0,0,1-1.35-1.35A1.32,1.32,0,0,1,57.84,77.13Z"/><path class="cls-2" d="M71.24,23.74v4.76H57V23.74H23.75v4.76H9.5V23.74H4.76v85.49H76V23.74ZM57.84,95.39a13.22,13.22,0,0,1-12-18.55l-5.89-5.37-5.83,5.34A13.17,13.17,0,1,1,8.91,82.23,13.18,13.18,0,0,1,32.1,73.67l6.08-5.56V61.85a13.16,13.16,0,1,1,14.93-13,13.27,13.27,0,0,1-11.41,13v6.34l6.07,5.53A13.17,13.17,0,1,1,57.84,95.39Z"/><path class="cls-3" d="M23.41,78.47a1.3,1.3,0,0,1-1.34,1.36,1.41,1.41,0,0,1-1.36-1.36,1.32,1.32,0,0,1,1.36-1.34A1.41,1.41,0,0,1,23.41,78.47Z"/><path class="cls-3" d="M44.92,56.92a9.66,9.66,0,0,1-9.89,0,4.1,4.1,0,0,1,3.78-2.48h2.34A4.15,4.15,0,0,1,44.92,56.92Z"/><path class="cls-4" d="M40,39.29a9.5,9.5,0,0,0-7.73,15,7.76,7.76,0,0,1,6.56-3.41h2.34a7.82,7.82,0,0,1,6.48,3.51,9.4,9.4,0,0,0,1.86-5.62A9.52,9.52,0,0,0,40,39.29Zm0,10.89a5,5,0,1,1,5-5A5.06,5.06,0,0,1,40,50.17Z"/><path class="cls-3" d="M41.3,45A1.41,1.41,0,0,1,40,46.38,1.32,1.32,0,0,1,38.61,45a1.34,1.34,0,0,1,2.69,0Z"/><path class="cls-3" d="M62.79,90.35a9.62,9.62,0,0,1-9.89,0,4.1,4.1,0,0,1,3.78-2.48H59A4.13,4.13,0,0,1,62.79,90.35Z"/><path class="cls-4" d="M57.84,72.7a9.51,9.51,0,0,0-7.73,15.06,7.79,7.79,0,0,1,6.56-3.41H59a7.8,7.8,0,0,1,6.48,3.51,9.4,9.4,0,0,0,1.87-5.64A9.52,9.52,0,0,0,57.84,72.7Zm0,10.89a5,5,0,1,1,5-5A4.93,4.93,0,0,1,57.84,83.59Z"/><path class="cls-3" d="M27,90.35a9.65,9.65,0,0,1-9.91,0,4.14,4.14,0,0,1,3.79-2.48h2.32A4.15,4.15,0,0,1,27,90.35Z"/><path class="cls-4" d="M22.09,72.7a9.49,9.49,0,0,0-7.73,15.06,7.79,7.79,0,0,1,6.56-3.41h2.32a7.84,7.84,0,0,1,6.49,3.51A9.5,9.5,0,0,0,22.09,72.7Zm0,10.89a5,5,0,1,1,5-5A5.06,5.06,0,0,1,22.07,83.59Z"/><path class="cls-3" d="M59.19,78.47a1.32,1.32,0,0,1-1.34,1.36,1.4,1.4,0,0,1-1.34-1.36,1.34,1.34,0,0,1,2.69,0Z"/></g></g></svg>