<svg xmlns="http://www.w3.org/2000/svg" viewBox="0 0 80.74 113.98"><defs><style>.cls-1{fill:#414141;}.cls-2{fill:#faaf40;}.cls-3{fill:#8cd1e9;}.cls-4{fill:#ae4e56;}</style></defs><title>Recurso 15</title><g id="Capa_2" data-name="Capa 2"><g id="Imgs-texts"><path class="cls-1" d="M76,19H71.24V14.25H66.49V0H61.74V14.25H57V19H23.75V14.25H19V0H14.25V14.25H9.5V19H0v95H80.74V19ZM61.74,19h4.75v4.75H61.74ZM14.25,19H19v4.75H14.25ZM76,109.23H4.75V23.75H9.5v4.75H23.75V23.75H57v4.75H71.24V23.75H76Z"/><path class="cls-1" d="M62.93,48.29H42.46V45.85H38.27v2.44H17.81V82.93H30.33l-3.94,6.15,3.47,2.38,5.46-8.52H45.46l5.46,8.51,3.47-2.38-3.94-6.14H62.93Zm-4.1,4.15V78.68H22V52.44Z"/><polygon class="cls-1" points="38.01 65.31 41.11 74.26 51.49 64.78 51.01 70.7 55.09 71.13 56.2 57.78 43.77 56.62 43.34 60.76 49.01 61.33 42.89 66.9 39.82 58.12 24.54 71.58 27.23 74.81 38.01 65.31"/><rect class="cls-2" x="61.74" y="19" width="4.76" height="4.74"/><rect class="cls-2" x="14.25" y="19" width="4.74" height="4.74"/><path class="cls-3" d="M71.24,23.74V28.5H57V23.74H23.75V28.5H9.5V23.74H4.76v85.49H76V23.74ZM62.93,82.93H50.46l3.93,6.15-3.48,2.37-5.47-8.52H35.33l-5.47,8.53-3.48-2.39,3.95-6.15H17.81V48.3H38.27V45.85h4.2V48.3H62.93Z"/><path class="cls-4" d="M22,52.44V78.68H58.84V52.44ZM55.09,71.13,51,70.7l.48-5.92L41.11,74.25,38,65.31l-10.78,9.5-2.7-3.24L39.81,58.12l3.08,8.77L49,61.33l-5.67-.57.43-4.14L56.2,57.78Z"/></g></g></svg>