<svg xmlns="http://www.w3.org/2000/svg" viewBox="0 0 80.74 113.98"><defs><style>.cls-1{fill:#414141;}.cls-2{fill:#faaf40;}.cls-3{fill:#8cd1e9;}.cls-4{fill:#009345;}.cls-5{fill:#006838;}</style></defs><title>Recurso 14</title><g id="Capa_2" data-name="Capa 2"><g id="Imgs-texts"><path class="cls-1" d="M46.31,42.74,35.42,61.79l-5.74-9.56L15.44,76H65.3ZM30,71.24H23.82l5.86-9.76,3,5.06ZM46.31,52.32,57.11,71.24H35.49Z"/><path class="cls-1" d="M71.24,23.75v4.74H57V23.75H23.75v4.74H9.5V23.75H4.76v85.47H76V23.75ZM15.44,76,29.69,52.24l5.74,9.56L46.31,42.74,65.3,76Zm20.05-4.74H57.11L46.31,52.32Zm-11.66,0H30l2.7-4.71-3-5.06ZM14.25,19v4.76H19V19Zm47.49,0v4.76H66.5V19Z"/><rect class="cls-2" x="61.74" y="18.99" width="4.76" height="4.76"/><rect class="cls-2" x="14.25" y="18.99" width="4.74" height="4.76"/><path class="cls-3" d="M71.24,23.75v4.74H57V23.75H23.75v4.74H9.5V23.75H4.76v85.47H76V23.75ZM15.44,76,29.69,52.24l5.74,9.56L46.31,42.74,65.3,76Z"/><polygon class="cls-4" points="57.11 71.24 35.49 71.24 46.31 52.31 57.11 71.24"/><polygon class="cls-5" points="32.72 66.53 30.02 71.24 23.82 71.24 29.69 61.48 32.72 66.53"/><path class="cls-1" d="M46.31,42.74,35.42,61.8l-5.74-9.56L15.43,76H65.3ZM30,71.24h-6.2l5.86-9.77,3,5.05Zm5.47,0L46.31,52.32,57.12,71.24Z"/><path class="cls-1" d="M76,19H71.24V14.25H66.49V0H61.74V14.25H57V19H23.75V14.25H19V0H14.25V14.25H9.5V19H0v95H80.74V19ZM61.74,19h4.75v4.75H61.74ZM14.25,19H19v4.75H14.25ZM76,109.23H4.75V23.75H9.5V28.5H23.75V23.75H57V28.5H71.24V23.75H76Z"/><path class="cls-1" d="M49.87,95h-19a2.38,2.38,0,1,0,0,4.75h19a2.38,2.38,0,1,0,0-4.75Z"/><path class="cls-1" d="M59.37,85.49h-38a2.37,2.37,0,1,0,0,4.75h38a2.37,2.37,0,0,0,0-4.75Z"/></g></g></svg>