<svg xmlns="http://www.w3.org/2000/svg" viewBox="0 0 112.5 112.5"><defs><style>.cls-1{fill:#ffd768;}.cls-2{fill:#f8b6b6;}.cls-3{fill:#414141;}</style></defs><title>Recurso 11</title><g id="Capa_2" data-name="Capa 2"><g id="Imgs-texts"><path class="cls-1" d="M105.83,26.37A19.74,19.74,0,0,1,89.34,45.8l-.28,0c-.05,0-.15,0-.23.05l-.3,0a.66.66,0,0,1-.2,0L88,46h-.2c-.1,0-.23,0-.36,0h-.58a.34.34,0,0,1-.15,0H85.48a.58.58,0,0,0-.2,0,4.16,4.16,0,0,1-.56,0H84.6L84,45.92a.87.87,0,0,1-.25,0,1.59,1.59,0,0,1-.36-.05l-.66-.07a.14.14,0,0,0-.1,0,19.69,19.69,0,1,1,23.18-19.38Z"/><path class="cls-2" d="M93.63,66.57A28.11,28.11,0,0,1,71.66,94L69,94.6v11.21H63.16V94.7H45.48v11.11H39.58V94.6L37,94A28.26,28.26,0,0,1,16.72,76.26l-.79-2.18H6.68v-15h9.26l.79-2.2A28.34,28.34,0,0,1,29,42.25l1.65-1V30.22a9.12,9.12,0,0,1,5.38,6L36.78,39l2.87-.36a27.21,27.21,0,0,1,3.5-.23H62.68a26.31,26.31,0,0,0,19.3,14,.51.51,0,0,1,.2,0l.48.07c.13,0,.26,0,.41,0a1.75,1.75,0,0,0,.36,0l.76.08h.25l.61,0h2.13l.71,0H88l.86-.08a.19.19,0,0,0,.1,0l.74-.08a.2.2,0,0,1,.1,0A27.89,27.89,0,0,1,93.63,66.57Z"/><rect class="cls-3" x="39.91" y="42.84" width="23.03" height="6.68"/><path class="cls-3" d="M25.12,51.35a3.56,3.56,0,1,0,3.56,3.56A3.57,3.57,0,0,0,25.12,51.35Z"/><path class="cls-3" d="M105.82,49.39v5a8.86,8.86,0,0,1-5.72,8.26,34.57,34.57,0,0,0-3.64-12A26.36,26.36,0,1,0,60.32,31.74H43.14c-.56,0-1.11,0-1.67,0A15.8,15.8,0,0,0,27.3,22.9H24V37.5A35,35,0,0,0,11.34,52.36H0V80.76H11.34A34.9,34.9,0,0,0,32.9,99.84V112.5H52.16V101.38h4.33V112.5H75.74V99.85a34.8,34.8,0,0,0,24.44-30.27A15.56,15.56,0,0,0,112.5,54.38v-5ZM86.13,6.68a19.68,19.68,0,0,1,3.22,39.1l-.28,0-.23,0-.32,0-.21,0L88,46l-.2,0-.35,0H85.29l-.57,0H84.6L84,45.93l-.27,0-.34,0-.65-.1-.12,0A19.69,19.69,0,0,1,86.13,6.68Zm1.24,77.58A28.24,28.24,0,0,1,71.67,94l-2.61.58v11.21H63.17V94.7H45.48v11.11h-5.9V94.6L37,94A28.19,28.19,0,0,1,16.72,76.27l-.8-2.19H6.69v-15h9.24l.8-2.19A28.26,28.26,0,0,1,29,42.24l1.66-1v-11a9.06,9.06,0,0,1,5.38,6L36.79,39l2.86-.35a28.36,28.36,0,0,1,3.49-.21H62.68a26.25,26.25,0,0,0,19.3,14l.22,0,.47.07.41,0,.36,0,.76.07.27,0,.6,0h2.14l.7,0H88l.86-.08H89l.76-.1h.1a28.13,28.13,0,0,1-2.49,31.79Z"/><path class="cls-3" d="M83.61,66.56a17.9,17.9,0,0,1-4,11.39,18.16,18.16,0,0,1-10.1,6.28l1.46,6.52a24.9,24.9,0,0,0,13.83-8.59,24.5,24.5,0,0,0,5.52-15.6Z"/><path class="cls-3" d="M94.12,27a4.28,4.28,0,0,0-2.52-1.48,3.42,3.42,0,0,0,1.89-3.72A3.71,3.71,0,0,0,93,20.1,3.34,3.34,0,0,0,91.77,19a6.24,6.24,0,0,0-1.63-.64,12.59,12.59,0,0,0-2-.32V14.38H85.9v3.53l-1.76,0V14.38H81.92V18H77.47v2.36h1.6a1.15,1.15,0,0,1,1.28,1v10a.76.76,0,0,1-.83.72h-1.6l-.45,2.65h4.45v3.67h2.22V34.73H85.9v3.62h2.22V34.69a17.53,17.53,0,0,0,2.1-.22A9.07,9.07,0,0,0,92,34a5,5,0,0,0,1.4-.85,4.12,4.12,0,0,0,.93-1.29,5.77,5.77,0,0,0,.46-1.8A4.24,4.24,0,0,0,94.12,27Zm-9.93-6.43h.57c.31,0,.58,0,.78,0s.49,0,.84,0,.65.07.89.11a6.66,6.66,0,0,1,.79.24,2.36,2.36,0,0,1,.69.4,2,2,0,0,1,.44.61,1.89,1.89,0,0,1,.18.85,2,2,0,0,1-.13.73,1.31,1.31,0,0,1-.39.55,3.82,3.82,0,0,1-.53.4,2.71,2.71,0,0,1-.7.26c-.28.07-.53.12-.74.15a5.53,5.53,0,0,1-.79.08l-.72,0H84.19V20.53Zm6.06,9.82a2.17,2.17,0,0,1-.35.58,2,2,0,0,1-.57.43,4.39,4.39,0,0,1-.68.3,5.44,5.44,0,0,1-.81.21c-.3.05-.58.1-.81.12s-.53,0-.85.06l-.76,0H84.19V27.18H85.8l1,0a8.28,8.28,0,0,1,1.07.14,6.42,6.42,0,0,1,.94.26,2.73,2.73,0,0,1,.83.44,2.08,2.08,0,0,1,.53.67,1.92,1.92,0,0,1,.21.92A1.82,1.82,0,0,1,90.24,30.35Z"/></g></g></svg>